<?xml version="1.0" encoding="UTF-8"?>
<svg version="1.1" xmlns="http://www.w3.org/2000/svg" width="512" height="512">
<path d="M0 0 C0.98355469 0.18804199 1.96710938 0.37608398 2.98046875 0.56982422 C62.25491763 12.13938668 118.78443388 43.76529978 156 92 C156.78503906 92.9796875 157.57007813 93.959375 158.37890625 94.96875 C176.16163981 117.29973941 189.98438753 142.92637823 199 170 C199.27247559 170.80920898 199.54495117 171.61841797 199.82568359 172.45214844 C203.06719326 182.22936903 205.60334585 192.11510751 207.75 202.1875 C207.94875732 203.11216064 208.14751465 204.03682129 208.35229492 204.98950195 C211.58578064 220.90468263 212.4087805 236.61236217 212.375 252.8125 C212.37418427 254.29126114 212.37418427 254.29126114 212.37335205 255.79989624 C212.20641508 321.86219604 186.46273943 383.26622641 141 431 C140.14462646 431.898396 140.14462646 431.898396 139.27197266 432.81494141 C131.27171874 441.15526531 123.05533043 448.80052136 113.76806641 455.68505859 C111.96057641 457.02932 110.17326388 458.39759127 108.38671875 459.76953125 C99.97952986 466.15859319 91.23638957 471.70081715 82.02734375 476.86083984 C80.16433792 477.90765887 78.31616361 478.97678881 76.46875 480.05078125 C60.54740818 488.9975713 42.83582398 495.92222553 25.1875 500.625 C24.29417969 500.86476563 23.40085937 501.10453125 22.48046875 501.3515625 C17.12258764 502.75220544 11.74821368 503.88022814 6.3125 504.9375 C5.47138672 505.10701172 4.63027344 505.27652344 3.76367188 505.45117188 C-12.04655829 508.5153506 -27.55361246 509.37680068 -43.625 509.3125 C-44.59588562 509.31034485 -45.56677124 509.3081897 -46.56707764 509.30596924 C-69.22836619 509.22528425 -89.9823901 506.22106778 -111.97802734 500.74609375 C-114.02100769 500.24170306 -116.06846629 499.75516753 -118.11962891 499.28515625 C-123.61143424 497.99971075 -128.64111772 496.48892119 -133.73876953 494.07128906 C-136.22293456 492.89438169 -138.74016285 491.83101443 -141.27734375 490.7734375 C-153.64099193 485.55528265 -165.4731052 479.8774925 -177 473 C-178.03382813 472.38382812 -179.06765625 471.76765625 -180.1328125 471.1328125 C-189.85970523 465.11932041 -198.82105882 458.02765709 -207.69140625 450.83203125 C-209.81341505 449.14806826 -211.98144507 447.57091435 -214.1875 446 C-217.61456878 443.45184151 -220.22612774 440.60317705 -222.953125 437.33203125 C-225.50086711 434.4293556 -228.23927239 431.76077348 -231 429.0625 C-235.29904763 424.84543421 -239.15322845 420.53472191 -242.6953125 415.64453125 C-243.91869207 413.86450864 -243.91869207 413.86450864 -246 413 C-247.01545343 411.34270337 -248.01068952 409.67303394 -249 408 C-249.94906474 406.6361919 -250.91125343 405.28146963 -251.8828125 403.93359375 C-252.41003906 403.20076172 -252.93726563 402.46792969 -253.48046875 401.71289062 C-254.58136064 400.18968509 -255.68555926 398.66886429 -256.79296875 397.15039062 C-257.31761719 396.41884766 -257.84226562 395.68730469 -258.3828125 394.93359375 C-259.10041748 393.9444397 -259.10041748 393.9444397 -259.83251953 392.93530273 C-261.03114013 390.94837979 -261.56513539 389.26741814 -262 387 C-262.66 387 -263.32 387 -264 387 C-264.67154933 385.71086513 -265.33708859 384.41859796 -266 383.125 C-266.37125 382.40570313 -266.7425 381.68640625 -267.125 380.9453125 C-268 379 -268 379 -268 377 C-268.66 376.67 -269.32 376.34 -270 376 C-271.02195657 374.20135644 -271.96868134 372.35959683 -272.875 370.5 C-273.40351563 369.41589844 -273.93203125 368.33179688 -274.4765625 367.21484375 C-276.39188072 363.17303119 -278.24327972 359.11309027 -280 355 C-280.4125 354.05125 -280.825 353.1025 -281.25 352.125 C-282 350 -282 350 -282 347 C-282.66 346.67 -283.32 346.34 -284 346 C-285 343.5234375 -285 343.5234375 -286 340.375 C-286.52207031 338.74498047 -286.52207031 338.74498047 -287.0546875 337.08203125 C-287.77069216 334.74761938 -288.46806774 332.41390039 -289.125 330.0625 C-289.92165471 327.03024842 -289.92165471 327.03024842 -291.125 324.375 C-292.08608427 321.76634271 -292.15757882 319.75762929 -292 317 C-292.66 316.67 -293.32 316.34 -294 316 C-294.5625 313.3046875 -294.5625 313.3046875 -295 309.875 C-295.4475512 306.41447017 -295.93400949 303.2134889 -296.96557617 299.8762207 C-298.2464365 295.46657064 -298.69844018 291.05035058 -299.11328125 286.48828125 C-299.23972771 285.12018059 -299.23972771 285.12018059 -299.36872864 283.72444153 C-300.17868987 274.173244 -300.26854225 264.64863137 -300.20581055 255.06860352 C-300.18739703 252.17129759 -300.18530317 249.27431199 -300.18554688 246.37695312 C-300.16451528 235.54637187 -299.8423671 224.79955332 -299 214 C-298.34 214 -297.68 214 -297 214 C-297.04125 213.0925 -297.0825 212.185 -297.125 211.25 C-297.02958563 187.4441151 -285.16146142 161.72266664 -275.125 140.625 C-274.70347656 139.73039063 -274.28195312 138.83578125 -273.84765625 137.9140625 C-266.06060832 121.53030416 -266.06060832 121.53030416 -263 120 C-262.62488281 118.99259766 -262.62488281 118.99259766 -262.2421875 117.96484375 C-260.46846816 113.73134382 -257.80907302 110.26677824 -255.125 106.5625 C-254.06439864 105.08514166 -253.00448952 103.60728609 -251.9453125 102.12890625 C-251.44032227 101.42910645 -250.93533203 100.72930664 -250.41503906 100.00830078 C-249.13415532 98.19040056 -247.9318288 96.34302165 -246.7421875 94.46484375 C-245.87980469 93.24474609 -245.87980469 93.24474609 -245 92 C-244.34 92 -243.68 92 -243 92 C-242.72414062 91.41863281 -242.44828125 90.83726563 -242.1640625 90.23828125 C-238.88353023 83.93041216 -234.33971764 79.22374278 -228.92578125 74.70703125 C-227.12528912 73.11105749 -225.68433584 71.50143686 -224.1875 69.625 C-220.89488504 65.64013715 -216.98980303 62.57278476 -212.953125 59.3671875 C-211.05757599 57.84773948 -209.18967189 56.29276097 -207.359375 54.6953125 C-175.15806464 26.63417061 -133.48194304 8.10510088 -91.67089844 0.48779297 C-89.97063768 0.17727003 -88.27290219 -0.147678 -86.57910156 -0.49169922 C-59.36400435 -5.96522126 -27.16419175 -5.47584499 0 0 Z " fill="#DB524A" transform="translate(300,3)"/>
<path d="M0 0 C7.8829435 1.12613479 7.8829435 1.12613479 11.4609375 2.75 C12.64901001 3.28403442 12.64901001 3.28403442 13.86108398 3.82885742 C14.69067627 4.21533447 15.52026855 4.60181152 16.375 5 C17.25422119 5.40516846 18.13344238 5.81033691 19.03930664 6.2277832 C21.70165815 7.46758846 24.35303663 8.72770269 27 10 C27.74137207 10.35626465 28.48274414 10.7125293 29.24658203 11.07958984 C45.55680185 19.04328304 61.23089328 29.1685987 75 41 C76.05640416 41.8747708 77.11377284 42.74837757 78.171875 43.62109375 C90.962285 54.26414284 102.82234495 65.80884932 113 79 C113.78503906 79.9796875 114.57007813 80.959375 115.37890625 81.96875 C133.16163981 104.29973941 146.98438753 129.92637823 156 157 C156.27247559 157.80920898 156.54495117 158.61841797 156.82568359 159.45214844 C160.06719326 169.22936903 162.60334585 179.11510751 164.75 189.1875 C164.94875732 190.11216064 165.14751465 191.03682129 165.35229492 191.98950195 C168.58578064 207.90468263 169.4087805 223.61236217 169.375 239.8125 C169.37418427 241.29126114 169.37418427 241.29126114 169.37335205 242.79989624 C169.20641508 308.86219604 143.46273943 370.26622641 98 418 C97.14462646 418.898396 97.14462646 418.898396 96.27197266 419.81494141 C88.27171874 428.15526531 80.05533043 435.80052136 70.76806641 442.68505859 C68.96057641 444.02932 67.17326388 445.39759127 65.38671875 446.76953125 C56.97952986 453.15859319 48.23638957 458.70081715 39.02734375 463.86083984 C37.16433792 464.90765887 35.31616361 465.97678881 33.46875 467.05078125 C17.54740818 475.9975713 -0.16417602 482.92222553 -17.8125 487.625 C-18.70582031 487.86476563 -19.59914063 488.10453125 -20.51953125 488.3515625 C-25.87741236 489.75220544 -31.25178632 490.88022814 -36.6875 491.9375 C-37.52861328 492.10701172 -38.36972656 492.27652344 -39.23632812 492.45117188 C-55.04655829 495.5153506 -70.55361246 496.37680068 -86.625 496.3125 C-87.59588562 496.31034485 -88.56677124 496.3081897 -89.56707764 496.30596924 C-112.22836619 496.22528425 -132.9823901 493.22106778 -154.97802734 487.74609375 C-157.02100769 487.24170306 -159.06846629 486.75516753 -161.11962891 486.28515625 C-162.64789307 485.92744141 -162.64789307 485.92744141 -164.20703125 485.5625 C-165.55438354 485.25505859 -165.55438354 485.25505859 -166.92895508 484.94140625 C-171.08579952 483.66715614 -175.02696124 481.76579501 -179 480 C-190.385 475.05 -190.385 475.05 -202 470 C-201.67 445.91 -201.34 421.82 -201 397 C-198.0472121 397.73819698 -195.71183935 398.47685348 -192.97265625 399.671875 C-155.94610846 415.4339503 -111.48421198 418.90437037 -72 411 C-70.15148437 410.67515625 -70.15148437 410.67515625 -68.265625 410.34375 C-40.12256422 404.99529501 -13.49035982 391.52680524 3.5625 367.9375 C22.31430188 340.36323577 28.44609023 305.63416282 22.3125 272.9375 C17.43055847 249.27279241 5.44359716 227.32453692 -14.93115234 213.45410156 C-49.22255112 191.16516903 -92.34361934 188.94687295 -131.66015625 196.6328125 C-134.14324908 197.02247982 -136.49045781 197.0244681 -139 197 C-139.28734751 187.43632891 -138.38849995 178.02281442 -137.46875 168.51953125 C-137.32928786 167.04150699 -137.19028975 165.56343888 -137.05175781 164.08532715 C-136.54010295 158.66052055 -136.01953304 153.23655777 -135.5 147.8125 C-133.7675 129.5903125 -133.7675 129.5903125 -132 111 C-88.44 111 -44.88 111 0 111 C0 94.83 0 78.66 0 62 C-59.73 62 -119.46 62 -181 62 C-181 61.67 -181 61.34 -181 61 C-121.27 61 -61.54 61 0 61 C0 40.87 0 20.74 0 0 Z " fill="#25A162" transform="translate(343,16)"/>
<path d="M0 0 C59.73 0 119.46 0 181 0 C181 16.17 181 32.34 181 49 C137.44 49 93.88 49 49 49 C49 52.63 49 56.26 49 60 C48.82703718 62.71412385 48.61483363 65.42612482 48.35742188 68.13354492 C48.28914688 68.86666901 48.22087189 69.59979309 48.15052795 70.35513306 C47.92810163 72.73072972 47.69851572 75.10557177 47.46875 77.48046875 C47.31136074 79.14622344 47.15442674 80.81202121 46.9979248 82.4778595 C46.58816337 86.82649891 46.1722884 91.17453189 45.75506592 95.52246094 C45.32905537 99.9736035 44.90892815 104.42530106 44.48828125 108.87695312 C43.66455787 117.58518406 42.83436445 126.2927822 42 135 C42.71953857 134.88406494 43.43907715 134.76812988 44.18041992 134.64868164 C47.51527117 134.11453953 50.85135419 133.58849353 54.1875 133.0625 C55.88422852 132.78889648 55.88422852 132.78889648 57.61523438 132.50976562 C95.12157368 126.63270391 134.81527952 129.39327659 167.03515625 151.0390625 C169.48171989 152.92342055 171.74561868 154.8901804 174 157 C174.89847656 157.81984375 175.79695312 158.6396875 176.72265625 159.484375 C191.6798014 173.72143751 199.44145813 190.05637931 204 210 C204.3403125 211.38832031 204.3403125 211.38832031 204.6875 212.8046875 C210.83525585 242.26268428 204.39169178 277.07617321 188.15722656 302.28662109 C185.09415915 306.82177027 181.6841517 310.96098254 178 315 C177.31550781 315.76570313 176.63101563 316.53140625 175.92578125 317.3203125 C155.72268649 338.75575869 126.56780683 348.42286517 98 352 C97.29351318 352.0935376 96.58702637 352.1870752 95.85913086 352.28344727 C57.1749031 356.82899746 14.98676876 352.49338438 -20 335 C-20 318.17 -20 301.34 -20 284 C-16.01003416 285.32998861 -12.34965418 286.68402226 -8.54833984 288.41064453 C26.35441063 304.26148793 72.50318004 312.96468859 109.4609375 299.40625 C125.41721683 293.06600656 136.27612744 282.90979767 143.3125 267.1875 C148.39585091 253.29009859 149.2964553 234.30524321 145 220 C144.731875 219.10023438 144.46375 218.20046875 144.1875 217.2734375 C139.57506204 203.32081267 130.97722737 193.7130319 118 187 C89.09108549 173.30873809 51.31184014 175.88745473 21.078125 183.1328125 C11.48386603 185.24698733 6.27820959 182.52456421 -1.9375 177.5625 C-3.00291016 176.97017578 -4.06832031 176.37785156 -5.16601562 175.76757812 C-12.49999952 171.374705 -12.49999952 171.374705 -13.72094727 168.01782227 C-13.75446284 165.5909003 -13.40741022 163.39350721 -13 161 C-12.85015646 158.73666355 -12.71739804 156.4721597 -12.59765625 154.20703125 C-12.42261296 151.7419479 -12.24415671 149.27710482 -12.0625 146.8125 C-11.97548828 145.56791016 -11.88847656 144.32332031 -11.79882812 143.04101562 C-11.40747537 137.62875194 -10.90818565 132.35111819 -10 127 C-9.82306666 124.2477036 -9.6778301 121.50468302 -9.5625 118.75 C-9.17410383 110.55171392 -8.62346836 102.37116748 -8 94.1875 C-7.91693604 93.0727832 -7.83387207 91.95806641 -7.74829102 90.80957031 C-7.66635498 89.7522168 -7.58441895 88.69486328 -7.5 87.60546875 C-7.4278125 86.66856201 -7.355625 85.73165527 -7.28125 84.76635742 C-6.98128959 81.81596557 -6.49003016 78.92411845 -6 76 C-5.82306666 73.2477036 -5.6778301 70.50468302 -5.5625 67.75 C-5.17410383 59.55171392 -4.62346836 51.37116748 -4 43.1875 C-3.91693604 42.0727832 -3.83387207 40.95806641 -3.74829102 39.80957031 C-3.62538696 38.22354004 -3.62538696 38.22354004 -3.5 36.60546875 C-3.4278125 35.66856201 -3.355625 34.73165527 -3.28125 33.76635742 C-3.08275291 31.81395242 -2.81048001 29.86837468 -2.48632812 27.93286133 C-2.06830816 25.4119407 -1.82502547 23.01710014 -1.71875 20.46875 C-1.68136719 19.65792969 -1.64398438 18.84710938 -1.60546875 18.01171875 C-1.55326172 16.76841797 -1.55326172 16.76841797 -1.5 15.5 C-1.43044688 13.84360534 -1.35760415 12.18734509 -1.28125 10.53125 C-1.23581055 9.44166992 -1.23581055 9.44166992 -1.18945312 8.33007812 C-0.96214698 5.53444686 -0.46111563 2.76669381 0 0 Z " fill="#FEFEFE" transform="translate(162,78)"/>
<path d="" fill="#817D53" transform="translate(0,0)"/>
<path d="" fill="#817D53" transform="translate(0,0)"/>
</svg>
