<?xml version="1.0" encoding="UTF-8"?>
<svg version="1.1" xmlns="http://www.w3.org/2000/svg" width="400" height="400">
<path d="M0 0 C132 0 264 0 400 0 C400 132 400 264 400 400 C268 400 136 400 0 400 C0 268 0 136 0 0 Z " fill="#FEFEFE" transform="translate(0,0)"/>
<path d="M0 0 C0.96708893 -0.0071553 1.93417786 -0.01431061 2.93057251 -0.02168274 C3.98516663 -0.02437164 5.03976074 -0.02706055 6.12631226 -0.02983093 C7.8002153 -0.03968773 7.8002153 -0.03968773 9.50793457 -0.04974365 C13.20413277 -0.06946703 16.90029033 -0.08113799 20.5965271 -0.09111023 C21.86015453 -0.09518576 23.12378197 -0.09926128 24.42570114 -0.10346031 C30.42608164 -0.12216839 36.4264376 -0.13673386 42.42683947 -0.14507228 C49.33300624 -0.1548299 56.23885124 -0.18111416 63.14490473 -0.22157317 C69.14206493 -0.25549054 75.1390702 -0.26722706 81.13633347 -0.27127647 C83.67914383 -0.2761389 86.22195084 -0.28774297 88.76469803 -0.30631447 C92.33080675 -0.33073866 95.89608248 -0.32973415 99.46224976 -0.32279968 C100.50469849 -0.33560974 101.54714722 -0.3484198 102.6211853 -0.36161804 C113.03101353 -0.28815934 121.16794351 2.96788606 128.6980896 10.18232727 C133.341384 15.72361729 136.42758622 22.12392682 139.76498413 28.50312805 C142.33361078 33.29441752 145.11213279 37.96310093 147.8699646 42.64717102 C149.07367936 44.70151307 150.27679455 46.75620654 151.4793396 48.81123352 C152.08842163 49.85182922 152.69750366 50.89242493 153.32504272 51.96455383 C157.06805579 58.37805519 160.77369272 64.81316309 164.47689819 71.24971008 C167.41519095 76.35584746 170.35931903 81.45814551 173.332901 86.54380798 C174.72237568 88.92091505 176.10782882 91.30035464 177.49304199 93.6799469 C178.47019585 95.35471914 179.45308875 97.02613874 180.43612671 98.69746399 C181.02917603 99.71727356 181.62222534 100.73708313 182.23324585 101.78779602 C183.01695557 103.12632629 183.01695557 103.12632629 183.8164978 104.49189758 C187.81066829 112.25607957 188.5891855 120.59289335 187.1824646 129.14717102 C185.19757029 134.89858165 182.27320866 139.92642284 179.1824646 145.14717102 C178.14060335 146.95620571 177.10033372 148.76615768 176.06137085 150.57685852 C173.714362 154.64446367 171.34344363 158.69698126 168.9559021 162.74092102 C165.17649341 169.14377618 161.45488034 175.57886317 157.7449646 182.02217102 C157.12943726 183.08927307 156.51390991 184.15637512 155.87973022 185.2558136 C152.957999 190.32209858 150.0410368 195.39104326 147.13517761 200.46644592 C146.11995625 202.23901379 145.10344121 204.01083333 144.08651733 205.78242493 C142.81519099 207.99805238 141.54630339 210.21508176 140.28036499 212.43379211 C126.49201476 236.44133763 126.49201476 236.44133763 112.1824646 241.14717102 C108.24604917 241.69813275 104.36586766 241.70495399 100.39559937 241.68061829 C99.24967316 241.68923386 98.10374695 241.69784943 96.9230957 241.70672607 C93.15645392 241.72932356 89.39055991 241.72265798 85.62387085 241.71357727 C82.99267863 241.71881559 80.3614883 241.72509283 77.7303009 241.73236084 C72.22363967 241.74418004 66.71718924 241.73855135 61.21054077 241.72358704 C54.86702567 241.7066702 48.52419897 241.72250461 42.18075901 241.75480992 C36.05057199 241.7848332 29.92069753 241.78666854 23.79044914 241.77731133 C21.1946212 241.77649342 18.59877876 241.78332589 16.00299263 241.79808235 C12.36773225 241.8155811 8.73392732 241.80093853 5.09872437 241.77827454 C4.03607864 241.78996674 2.97343292 241.80165894 1.87858582 241.81370544 C-7.86900957 241.69060896 -15.93280064 238.14942615 -22.8175354 231.14717102 C-25.00872686 228.03321546 -26.88478973 224.77395592 -28.7550354 221.45967102 C-29.31078247 220.4970636 -29.86652954 219.53445618 -30.43911743 218.54267883 C-31.62900189 216.47897813 -32.8137529 214.41231054 -33.99380493 212.3429718 C-35.80724495 209.16520342 -37.63596121 205.99675313 -39.46987915 202.83076477 C-43.90635503 195.16765467 -48.31957696 187.49122515 -52.73355103 179.81513977 C-54.00565424 177.60357728 -55.27827585 175.3923129 -56.55142212 173.18135071 C-57.80426417 171.00561727 -59.05590758 168.82919316 -60.30630493 166.65205383 C-63.33397196 161.39385336 -66.3967474 156.16287214 -69.5440979 150.97529602 C-70.13755005 149.9920636 -70.7310022 149.00883118 -71.34243774 147.99580383 C-72.45032098 146.16636969 -73.56710686 144.34228092 -74.69497681 142.52510071 C-78.97001949 135.45382971 -82.2418762 127.99340312 -82.2550354 119.58467102 C-82.27437134 118.75838196 -82.29370728 117.9320929 -82.31362915 117.08076477 C-80.79163997 108.0806555 -75.00804001 99.98251326 -70.5050354 92.20967102 C-69.79184351 90.97112175 -69.07904146 89.73234793 -68.36660767 88.49336243 C-66.54090985 85.32067501 -64.71009557 82.15097349 -62.87783813 78.98207092 C-61.2349969 76.13906287 -59.59673134 73.29342306 -57.9581604 70.44795227 C-55.49527609 66.17262281 -53.0289009 61.89933726 -50.5597229 57.62763977 C-47.97487946 53.15492043 -45.3974754 48.67799264 -42.8253479 44.19795227 C-39.1724052 37.83816244 -35.50127109 31.48916695 -31.8175354 25.14717102 C-31.38296021 24.39468079 -30.94838501 23.64219055 -30.50064087 22.86689758 C-24.59055355 12.6746811 -18.77600073 4.08549288 -7.00022316 0.61095905 C-4.60917317 0.10289721 -2.44428468 0.0124538 0 0 Z " fill="#6CB33E" transform="translate(146.81753540039063,78.85282897949219)"/>
<path d="M0 0 C2.9375 2.4375 2.9375 2.4375 5 5 C5.495 5.495 5.495 5.495 6 6 C6.5 8.5625 6.5 8.5625 6 12 C3.37830364 15.84761635 0.27037459 19.04924195 -3.453125 21.8359375 C-11.7002317 28.8434484 -18.22568318 41.49205094 -19.19824219 52.17822266 C-20.19472136 69.3480535 -17.17196944 83.89073539 -5.75 97.25 C3.58055665 107.09631606 14.98676192 113.775832 28.73046875 114.203125 C30.54942313 114.22429101 32.36845139 114.23974462 34.1875 114.25 C35.53038086 114.2809375 35.53038086 114.2809375 36.90039062 114.3125 C51.21466874 114.39518175 63.43826696 108.24045535 73.71484375 98.46875 C84.29865409 87.03461643 88.76194927 73.58158083 88.52148438 58.26196289 C87.88596817 43.1698973 81.07423826 30.21704761 70.11328125 19.9375 C69.41589844 19.298125 68.71851563 18.65875 68 18 C63.15066902 13.33090964 63.15066902 13.33090964 62.625 8.6875 C63 5 63 5 64.9375 2.0625 C68.4039938 -0.27207746 70.34042856 -0.98189613 74.47265625 -0.734375 C85.51292303 2.47361597 93.73896544 14.84702373 99.19848633 24.33544922 C109.0680809 42.30558171 110.88190947 62.0544035 106 82 C105.12864399 84.75724136 104.07441545 87.3703955 102.875 90 C102.56860596 90.68078613 102.26221191 91.36157227 101.9465332 92.06298828 C93.34345196 110.49536704 77.95173877 123.90939072 59 131 C55.03134521 132.16868362 51.04639041 133.1420261 47 134 C46.23171875 134.18433594 45.4634375 134.36867188 44.671875 134.55859375 C25.75482797 137.68377842 6.8690777 132.49249759 -8.82275391 121.75244141 C-23.80279833 110.72217278 -34.4887114 94.71485808 -38.55859375 76.5 C-39.21531463 71.29272645 -39.22514834 66.11870006 -39.25 60.875 C-39.270625 59.81023437 -39.29125 58.74546875 -39.3125 57.6484375 C-39.36406191 47.02668308 -37.27924768 37.3799884 -32.375 27.9375 C-32.02945068 27.26267578 -31.68390137 26.58785156 -31.32788086 25.89257812 C-25.55867384 15.02376957 -14.11855782 -2.51537524 0 0 Z " fill="#FCFDFC" transform="translate(165,134)"/>
<path d="M0 0 C3.58552881 1.63687185 4.79315055 2.68972583 7 6 C7.26742554 9.13644409 7.26742554 9.13644409 7.29052734 13.05419922 C7.30060318 14.12545547 7.30060318 14.12545547 7.31088257 15.21835327 C7.32988849 17.58053536 7.3337881 19.94243369 7.3359375 22.3046875 C7.34236393 23.94752113 7.34909218 25.5903536 7.35610962 27.23318481 C7.36808907 30.67810723 7.37178979 34.12292932 7.37060547 37.56787109 C7.37040231 41.97870444 7.39769802 46.38889326 7.43214989 50.7995739 C7.45440646 54.1933995 7.45844339 57.58706973 7.45738602 60.98096085 C7.4597441 62.60684555 7.46857937 64.23273441 7.48405075 65.85854721 C7.5036854 68.13515861 7.49788384 70.41037707 7.48583984 72.68701172 C7.48868988 73.9814621 7.49153992 75.27591248 7.49447632 76.60958862 C6.91790206 80.56291024 5.76848157 82.18091078 3 85 C-0.26639824 87.28647877 -3.07471029 87.54954056 -7 87 C-10.70755995 84.43322773 -13.40644633 82.2408376 -15 78 C-15.26742554 74.90188599 -15.26742554 74.90188599 -15.29052734 71.21533203 C-15.29724457 70.54163574 -15.30396179 69.86793945 -15.31088257 69.17382812 C-15.32984473 66.95174741 -15.33378583 64.72996904 -15.3359375 62.5078125 C-15.3423668 60.95848467 -15.34909526 59.40915806 -15.35610962 57.85983276 C-15.36807799 54.61339504 -15.37179092 51.36706369 -15.37060547 48.12060547 C-15.37040233 43.96883447 -15.39770057 39.81774837 -15.43214989 35.6661396 C-15.45443209 32.46614474 -15.45844261 29.26631434 -15.45738602 26.06624985 C-15.45974014 24.53608719 -15.46855312 23.00591988 -15.48405075 21.47583389 C-15.50373846 19.33122618 -15.49786362 17.18809054 -15.48583984 15.04345703 C-15.48868988 13.82530304 -15.49153992 12.60714905 -15.49447632 11.3520813 C-14.89791703 7.30797413 -13.54376449 5.16598544 -11 2 C-7.29361264 -0.47092491 -4.29830496 -0.55407837 0 0 Z " fill="#FBFDFA" transform="translate(203,119)"/>
</svg>
